<?xml version="1.0" standalone="no"?>
<!DOCTYPE svg PUBLIC "-//W3C//DTD SVG 20010904//EN"
 "http://www.w3.org/TR/2001/REC-SVG-20010904/DTD/svg10.dtd">
<svg version="1.0" xmlns="http://www.w3.org/2000/svg"
 width="700.000000pt" height="700.000000pt" viewBox="0 0 700.000000 700.000000"
 preserveAspectRatio="xMidYMid meet">
<metadata>
Created by potrace 1.14, written by Peter Selinger 2001-2017
</metadata>
<g transform="translate(0.000000,700.000000) scale(0.100000,-0.100000)"
fill="#000000" stroke="none">
<path d="M3357 6995 c-1 -1 -49 -5 -106 -9 -116 -8 -237 -22 -314 -37 -29 -5
-70 -12 -92 -15 -145 -20 -564 -149 -730 -225 -27 -12 -52 -23 -55 -24 -16 -4
-179 -85 -255 -128 -368 -202 -699 -476 -994 -822 -221 -260 -448 -647 -578
-985 -72 -190 -158 -501 -178 -645 -2 -16 -7 -48 -10 -70 -3 -22 -10 -67 -15
-100 -32 -210 -33 -616 -1 -865 40 -312 119 -613 237 -903 47 -115 157 -341
199 -407 14 -22 25 -42 25 -45 0 -13 176 -269 253 -367 141 -182 323 -371 497
-518 36 -30 67 -58 70 -61 12 -13 203 -150 280 -200 316 -207 664 -360 1027
-454 72 -19 142 -36 155 -39 13 -2 50 -9 83 -15 33 -6 70 -13 82 -15 58 -12
155 -24 268 -33 174 -15 594 -8 721 12 16 3 43 7 59 10 17 2 48 7 70 10 158
23 428 91 610 155 698 247 1298 706 1717 1315 302 438 510 974 583 1499 24
172 29 264 29 476 0 246 -7 348 -39 560 -11 66 -37 195 -52 255 -8 33 -16 67
-18 75 -36 164 -151 470 -253 675 -92 183 -225 404 -306 507 -12 14 -32 41
-46 59 -133 177 -387 441 -560 581 -106 85 -306 229 -360 259 -19 11 -57 34
-85 51 -75 46 -278 149 -385 195 -324 139 -687 236 -1000 267 -30 3 -81 8
-113 12 -54 6 -414 13 -420 9z m468 -99 c17 -3 53 -7 80 -10 28 -3 61 -8 75
-10 14 -2 59 -10 100 -16 41 -6 91 -16 110 -20 19 -5 46 -11 60 -13 14 -3 45
-10 70 -17 25 -7 50 -13 55 -14 99 -22 425 -136 450 -157 5 -5 15 -9 22 -9 19
0 272 -127 377 -189 494 -291 895 -689 1197 -1186 110 -182 227 -437 308 -672
32 -94 97 -337 107 -402 3 -20 8 -39 9 -42 2 -3 7 -28 10 -55 4 -27 8 -56 10
-64 2 -8 7 -42 10 -75 4 -33 8 -67 10 -75 22 -83 22 -603 1 -730 -3 -14 -7
-47 -11 -75 -7 -63 -23 -157 -35 -215 -5 -25 -12 -56 -14 -70 -2 -14 -12 -54
-21 -90 -9 -36 -18 -72 -20 -80 -5 -22 -60 -196 -84 -262 -37 -106 -114 -282
-174 -398 -233 -453 -536 -818 -942 -1135 -94 -74 -346 -245 -360 -245 -4 0
-19 -9 -35 -20 -50 -36 -303 -157 -445 -213 -198 -79 -459 -155 -620 -180 -16
-3 -60 -10 -98 -16 -173 -29 -281 -36 -542 -36 -255 0 -336 6 -539 40 -484 81
-903 245 -1316 513 -63 41 -127 84 -141 96 -14 11 -41 32 -59 46 -208 154
-452 397 -631 630 -243 314 -454 724 -559 1082 -23 79 -50 177 -54 193 -8 36
-16 73 -20 95 -3 14 -9 48 -15 75 -37 191 -55 393 -55 625 0 151 11 387 19
400 2 3 6 34 10 70 4 36 16 110 27 165 150 762 514 1403 1093 1924 203 183
530 399 785 519 283 132 626 243 855 276 22 4 63 10 90 16 69 12 126 19 225
26 47 4 87 8 89 10 6 6 500 -4 536 -10z"/>
<path d="M3308 6635 c-2 -1 -41 -5 -88 -9 -47 -4 -96 -8 -110 -10 -14 -3 -43
-7 -65 -10 -22 -3 -51 -8 -65 -11 -14 -3 -52 -10 -85 -15 -95 -17 -310 -75
-425 -115 -773 -269 -1408 -825 -1775 -1554 -162 -322 -274 -681 -311 -999 -2
-26 -7 -58 -9 -72 -22 -121 -22 -510 -1 -675 2 -16 7 -57 11 -90 14 -121 67
-360 110 -501 313 -1006 1080 -1773 2085 -2086 90 -28 223 -62 283 -72 15 -3
35 -7 45 -10 25 -7 214 -34 307 -43 44 -4 172 -8 285 -8 216 0 310 6 465 30
17 3 48 7 70 11 22 3 88 16 146 30 469 106 912 316 1269 601 118 94 148 122
280 253 342 341 598 757 755 1225 20 61 39 118 41 128 2 9 6 25 9 35 15 55 64
277 69 314 3 23 8 57 11 73 37 234 39 591 5 838 -6 40 -13 90 -16 112 -3 22
-12 72 -20 110 -9 39 -17 79 -19 89 -13 58 -48 185 -75 267 -187 563 -523
1061 -965 1428 -55 46 -110 92 -122 101 -64 54 -327 218 -453 284 -276 143
-596 254 -868 301 -48 8 -97 17 -107 19 -11 2 -49 7 -85 11 -36 4 -78 9 -95
12 -33 5 -481 13 -487 8z m722 -1300 c36 -4 73 -9 83 -11 9 -2 27 -6 40 -9 12
-3 34 -7 48 -10 29 -5 178 -51 293 -89 117 -40 183 -53 253 -51 77 3 118 25
158 87 23 35 35 45 49 41 10 -3 26 -6 35 -8 9 -1 15 -7 14 -11 -1 -5 -36 -103
-78 -219 -41 -115 -87 -241 -100 -280 -14 -38 -58 -160 -98 -270 -72 -199 -72
-199 -104 -202 l-31 -3 13 53 c29 112 40 305 21 386 -32 141 -122 277 -241
367 -77 57 -249 133 -338 150 -187 33 -356 23 -525 -32 -219 -71 -364 -207
-432 -404 -31 -92 -32 -253 -1 -365 18 -66 81 -207 101 -225 3 -3 16 -21 30
-40 54 -78 149 -173 370 -370 46 -41 95 -86 109 -99 37 -33 160 -143 185 -164
12 -10 61 -57 110 -105 153 -149 250 -296 295 -449 32 -106 36 -144 35 -303 0
-163 -16 -237 -77 -372 -62 -136 -106 -197 -232 -323 -128 -129 -270 -224
-465 -309 -64 -28 -260 -85 -340 -99 -115 -21 -164 -27 -270 -34 -327 -19
-550 14 -850 127 -292 110 -413 101 -487 -36 -27 -49 -29 -50 -60 -42 l-32 8
13 38 c8 20 73 204 146 407 230 648 200 575 239 575 27 0 32 -3 26 -17 -111
-287 -62 -540 141 -734 80 -76 152 -120 309 -189 20 -9 126 -41 155 -47 89
-18 288 -24 390 -11 323 39 568 194 685 431 60 121 84 234 83 385 -1 137 -20
223 -77 338 -63 127 -126 200 -345 399 -49 44 -121 109 -160 145 -92 83 -303
295 -340 340 -175 215 -259 449 -251 696 4 110 9 138 44 241 77 224 281 437
541 563 135 67 291 118 415 136 17 3 36 7 43 9 8 3 50 8 95 11 45 4 83 7 85 9
5 4 222 -3 282 -10z m1200 -1213 c55 -41 67 -122 30 -195 -12 -23 -64 -99
-116 -168 -79 -106 -124 -180 -124 -204 0 -3 24 7 53 21 51 26 148 97 215 158
92 84 162 109 228 81 125 -52 138 -221 21 -281 -37 -20 -103 -21 -212 -4 -83
12 -274 21 -288 13 -21 -12 220 -137 323 -168 41 -13 95 -51 115 -81 23 -36
24 -108 2 -151 -37 -70 -132 -102 -206 -69 -46 21 -86 84 -131 209 -29 81 -76
174 -115 229 -15 22 -15 22 -16 -7 -5 -97 -3 -132 12 -236 22 -154 20 -229 -7
-266 -48 -63 -133 -83 -207 -48 -68 32 -91 98 -64 180 9 25 61 106 116 180 99
131 140 199 129 211 -13 12 -181 -92 -218 -135 -19 -23 -112 -92 -147 -110
-55 -28 -97 -27 -148 4 -72 42 -100 138 -61 214 33 62 147 88 266 59 19 -4 98
-10 175 -13 122 -5 138 -4 125 9 -24 23 -137 80 -260 131 -133 56 -165 75
-186 117 -66 128 77 273 208 209 52 -25 78 -64 123 -181 50 -131 119 -260 139
-260 14 0 -2 239 -23 340 -14 67 -6 137 20 174 28 41 53 56 106 66 44 7 88 -3
123 -28z"/>
</g>
</svg>
